#N canvas 448 132 1236 741 10;
#X text 29 14 calibrator 0.1;
#N canvas 0 50 450 278 (subpatch) 0;
#X array \$0-lastXpoints 500 float 0;
#X coords 0 3 499 -3 499 140 1 0 0;
#X restore 560 65 graph;
#X obj 102 132 f;
#X obj 151 158 + 1;
#X obj 101 109 bang;
#X obj 261 281 list-stddev;
#X floatatom 268 304 5 0 0 1 Std_Dev - -;
#X obj 211 216 bang;
#X obj 38 27 inlet;
#X text 417 320 calculate standard deviation. if below threshold \,
get mean from array and return.;
#X obj 143 14 inlet;
#X text 59 40 values;
#X text 407 45 reset bang;
#X floatatom 398 85 5 0 0 0 - - -;
#X obj 398 114 f;
#X obj 447 93 + 1;
#X obj 398 163 t 0;
#X obj 398 139 bang;
#X obj 438 139 moses 99;
#X obj -40 182 tabwrite \$0-lastXpoints;
#X obj 398 188 tabwrite \$0-lastXpoints;
#X obj 79 80 spigot;
#X obj 125 43 tgl 15 0 empty empty empty 17 7 0 10 -262144 -1 -1 0
15;
#X obj 218 15 loadbang;
#X obj 58 388 moses 2;
#X obj 95 355 counter 1 10000;
#X obj 134 309 bng 15 250 50 0 empty empty empty 17 7 0 10 -262144
-1 -1;
#X floatatom 124 389 5 0 0 0 - - -;
#X obj 371 290 list-mean;
#X floatatom 366 319 5 0 0 0 - - -;
#X obj 330 421 outlet;
#X obj 230 424 outlet;
#X obj 69 289 loadbang;
#X obj 156 335 bng 15 250 50 0 empty empty empty 17 7 0 10 -262144
-1 -1;
#X floatatom -23 346 5 0 0 0 - - -;
#X obj 33 289 - 1;
#X obj 92 161 s value;
#X text 258 155 60 sec * SampleRate;
#X obj 355 387 expr ($f1-$f2)/$f3;
#X obj 408 414 outlet;
#X msg 186 32 0;
#X obj 167 114 s bang;
#X obj 139 74 select 0;
#X obj 159 297 r bang;
#X obj 180 94 delay 1;
#X floatatom 259 133 5 0 0 0 - - -;
#X obj 376 35 inlet;
#X obj 324 55 bng 15 250 50 0 empty empty empty 17 7 0 10 -262144 -1
-1;
#X obj 29 110 s \$0-value;
#X obj 345 365 r \$0-value;
#X obj 161 192 moses 499;
#X obj 194 155 mod 500;
#X obj 210 245 bng 15 250 50 0 empty empty empty 17 7 0 10 -262144
-1 -1;
#X msg 473 242 2 4 7 6 5;
#X obj 283 252 list-tabdump \$0-lastXpoints 499;
#X connect 2 0 3 0;
#X connect 2 0 19 1;
#X connect 3 0 45 0;
#X connect 3 0 51 0;
#X connect 4 0 2 0;
#X connect 5 0 6 0;
#X connect 6 0 30 0;
#X connect 6 0 38 2;
#X connect 6 0 26 0;
#X connect 7 0 52 0;
#X connect 7 0 54 0;
#X connect 8 0 19 0;
#X connect 8 0 21 0;
#X connect 8 0 48 0;
#X connect 10 0 22 0;
#X connect 13 0 2 1;
#X connect 13 0 14 0;
#X connect 14 0 17 0;
#X connect 14 0 18 0;
#X connect 14 0 20 1;
#X connect 15 0 14 0;
#X connect 16 0 20 0;
#X connect 17 0 16 0;
#X connect 18 0 15 0;
#X connect 21 0 4 0;
#X connect 22 0 21 1;
#X connect 22 0 42 0;
#X connect 23 0 40 0;
#X connect 24 0 35 0;
#X connect 25 0 24 0;
#X connect 25 0 27 0;
#X connect 26 0 25 0;
#X connect 28 0 29 0;
#X connect 29 0 31 0;
#X connect 29 0 38 1;
#X connect 32 0 33 0;
#X connect 33 0 25 2;
#X connect 35 0 22 0;
#X connect 35 0 34 0;
#X connect 38 0 39 0;
#X connect 40 0 22 0;
#X connect 42 0 44 0;
#X connect 43 0 33 0;
#X connect 44 0 41 0;
#X connect 46 0 13 0;
#X connect 47 0 13 0;
#X connect 49 0 38 0;
#X connect 50 1 7 0;
#X connect 51 0 2 1;
#X connect 51 0 50 0;
#X connect 52 0 54 0;
#X connect 54 0 5 0;
#X connect 54 0 28 0;
