#N canvas 0 50 1409 586 10;
#X floatatom 208 203 5 0 0 0 - - -, f 5;
#X obj 208 224 sel 1;
#X msg 274 261 0.1;
#X obj 220 112 inlet;
#X obj 323 345 outlet;
#X obj 435 115 inlet;
#X obj 645 114 inlet;
#X obj 840 106 inlet;
#X obj 645 176 expr if ($f1 >= 0 \, $f1 \, 0);
#X obj 754 212 sel 0;
#X obj 678 259 spigot;
#X obj 718 229 tgl 15 0 empty empty empty 17 7 0 10 -262144 -1 -1 0.050611
1;
#X floatatom 680 293 5 0 0 0 - - -, f 5;
#X floatatom 643 158 5 0 0 0 - - -, f 5;
#X obj 438 176 expr if ($f1 >= 0 \, $f1 \, 0);
#X obj 547 212 sel 0;
#X obj 471 259 spigot;
#X obj 511 229 tgl 15 0 empty empty empty 17 7 0 10 -262144 -1 -1 0.0421636
1;
#X floatatom 473 293 5 0 0 0 - - -, f 5;
#X floatatom 436 158 5 0 0 0 - - -, f 5;
#X obj 842 176 expr if ($f1 >= 0 \, $f1 \, 0);
#X obj 951 212 sel 0;
#X obj 875 259 spigot;
#X obj 915 229 tgl 15 0 empty empty empty 17 7 0 10 -262144 -1 -1 0.223742
1;
#X floatatom 877 293 5 0 0 0 - - -, f 5;
#X floatatom 840 158 5 0 0 0 - - -, f 5;
#X obj 547 325 expr (($f1+$f2+$f3)/3);
#X floatatom 262 287 5 0 0 0 - - -, f 5;
#X obj 350 321 spigot;
#X obj 385 290 tgl 15 0 empty empty empty 17 7 0 10 -262144 -1 -1 0
1;
#X obj 211 179 expr if ($f1 >= 0 \, 0 \, 1);
#X obj 825 338 change;
#X obj 825 360 bng 15 250 50 0 empty empty empty 17 7 0 10 -262144
-1 -1;
#X floatatom 406 301 5 0 0 0 - - -, f 5;
#X obj 180 294 spigot;
#X obj 364 253 - 1;
#X obj 364 275 abs;
#X obj 216 270 tgl 15 0 empty empty empty 17 7 0 10 -262144 -1 -1 1
1;
#X connect 0 0 1 0;
#X connect 0 0 29 0;
#X connect 1 0 2 0;
#X connect 1 0 27 0;
#X connect 3 0 30 0;
#X connect 5 0 19 0;
#X connect 6 0 13 0;
#X connect 7 0 25 0;
#X connect 8 0 9 0;
#X connect 8 0 10 0;
#X connect 9 0 11 0;
#X connect 9 1 11 0;
#X connect 10 0 12 0;
#X connect 11 0 10 1;
#X connect 12 0 26 1;
#X connect 12 0 31 0;
#X connect 13 0 8 0;
#X connect 14 0 15 0;
#X connect 14 0 16 0;
#X connect 15 0 17 0;
#X connect 15 1 17 0;
#X connect 16 0 18 0;
#X connect 17 0 16 1;
#X connect 18 0 26 0;
#X connect 19 0 14 0;
#X connect 20 0 21 0;
#X connect 20 0 22 0;
#X connect 21 0 23 0;
#X connect 21 1 23 0;
#X connect 22 0 24 0;
#X connect 23 0 22 1;
#X connect 24 0 26 2;
#X connect 24 0 31 0;
#X connect 25 0 20 0;
#X connect 26 0 33 0;
#X connect 27 0 34 0;
#X connect 28 0 4 0;
#X connect 29 0 28 1;
#X connect 29 0 35 0;
#X connect 30 0 0 0;
#X connect 31 0 32 0;
#X connect 32 0 18 0;
#X connect 33 0 28 0;
#X connect 34 0 4 0;
#X connect 35 0 36 0;
#X connect 36 0 37 0;
#X connect 37 0 34 1;
