#N canvas 0 50 1124 592 10;
#X floatatom 286 341 5 0 0 0 - - -, f 5;
#X obj 271 286 inlet;
#X obj 316 285 inlet;
#X obj 361 284 inlet;
#X obj 409 283 inlet;
#X floatatom 348 379 5 0 0 0 - - -, f 5;
#X floatatom 377 419 5 0 0 0 - - -, f 5;
#X floatatom 429 457 5 0 0 0 - - -, f 5;
#X obj 260 493 outlet;
#X obj 316 494 outlet;
#X obj 370 495 outlet;
#X obj 426 496 outlet;
#X obj 331 340 fbe, f 12;
#X obj 298 430 change;
#X obj 299 454 bng 15 250 50 0 empty empty empty 17 7 0 10 -262144
-1 -1;
#X obj 393 378 fbe, f 12;
#X obj 421 416 fbe, f 12;
#X obj 474 456 fbe, f 12;
#X connect 0 0 8 0;
#X connect 0 0 12 0;
#X connect 0 0 15 1;
#X connect 0 0 16 1;
#X connect 0 0 17 1;
#X connect 1 0 0 0;
#X connect 2 0 5 0;
#X connect 3 0 6 0;
#X connect 4 0 7 0;
#X connect 5 0 9 0;
#X connect 5 0 12 1;
#X connect 5 0 15 0;
#X connect 5 0 16 2;
#X connect 5 0 17 2;
#X connect 6 0 10 0;
#X connect 6 0 12 2;
#X connect 6 0 15 2;
#X connect 6 0 16 0;
#X connect 6 0 17 3;
#X connect 7 0 11 0;
#X connect 7 0 12 3;
#X connect 7 0 15 3;
#X connect 7 0 16 3;
#X connect 7 0 17 0;
#X connect 12 0 0 0;
#X connect 13 0 14 0;
#X connect 15 0 5 0;
#X connect 16 0 6 0;
#X connect 17 0 7 0;
