#N canvas 64 66 1210 631 10;
#X obj 500 455 +~;
#X obj 501 610 outlet~;
#X text 548 513 porteuse;
#X obj 533 562 *~;
#X obj 515 330 sig~ 150;
#X obj 824 325 *~;
#X obj 872 343 *~;
#X obj 825 380 *~;
#X obj 807 404 +~;
#X text 786 355 mod 1;
#X text 745 429 mod 2;
#X obj 872 423 *~;
#X obj 808 456 *~;
#X obj 825 354 osc~;
#X obj 935 318 r index1;
#X obj 944 403 r index2;
#X obj 833 281 sig~ 1.17;
#X obj 915 338 sig~ 3.22;
#X obj 917 429 sig~ 4.74;
#X obj 795 496 +~;
#X obj 860 515 *~;
#X obj 796 548 *~;
#X obj 796 523 osc~;
#X obj 905 521 sig~ 4.74;
#X obj 932 495 r index3;
#X obj 797 430 osc~;
#X obj 762 596 +~;
#X obj 827 615 *~;
#X obj 763 648 *~;
#X obj 763 623 osc~;
#X obj 872 621 sig~ 4.74;
#X obj 899 595 r index4;
#X floatatom 476 262 5 0 0 0 - - -, f 5;
#X obj 525 146 inlet;
#X floatatom 543 213 5 0 0 0 - - -, f 5;
#X obj 408 558 snapshot~;
#X floatatom 404 594 5 0 0 0 - - -, f 5;
#X obj 358 527 bng 15 250 50 0 empty empty empty 17 7 0 10 -262144
-1 -1;
#X obj 319 412 snapshot~;
#X floatatom 301 468 5 0 0 0 - - -, f 5;
#X obj 270 380 bng 15 250 50 0 empty empty empty 17 7 0 10 -262144
-1 -1;
#X obj 485 510 osc~;
#X floatatom 982 255 5 0 0 0 - - -, f 5;
#X obj 492 576 lsin~;
#X obj 691 469 r feed;
#X obj 824 244 r ratio;
#X connect 0 0 41 0;
#X connect 0 0 43 0;
#X connect 4 0 0 0;
#X connect 4 0 5 0;
#X connect 4 0 8 0;
#X connect 4 0 19 0;
#X connect 5 0 6 0;
#X connect 5 0 13 0;
#X connect 6 0 7 1;
#X connect 7 0 8 1;
#X connect 8 0 11 0;
#X connect 8 0 25 0;
#X connect 11 0 12 1;
#X connect 12 0 19 1;
#X connect 13 0 7 0;
#X connect 14 0 17 0;
#X connect 15 0 18 0;
#X connect 16 0 5 1;
#X connect 17 0 6 1;
#X connect 18 0 11 1;
#X connect 19 0 20 0;
#X connect 19 0 22 0;
#X connect 20 0 21 1;
#X connect 21 0 26 1;
#X connect 22 0 21 0;
#X connect 23 0 20 1;
#X connect 24 0 23 0;
#X connect 25 0 12 0;
#X connect 26 0 27 0;
#X connect 26 0 29 0;
#X connect 27 0 28 1;
#X connect 28 0 0 1;
#X connect 29 0 28 0;
#X connect 30 0 27 1;
#X connect 31 0 30 0;
#X connect 32 0 4 0;
#X connect 33 0 4 0;
#X connect 33 0 32 0;
#X connect 33 0 34 0;
#X connect 35 0 36 0;
#X connect 37 0 35 0;
#X connect 38 0 39 0;
#X connect 40 0 38 0;
#X connect 41 0 3 0;
#X connect 41 0 38 0;
#X connect 43 0 1 0;
#X connect 43 0 35 0;
#X connect 44 0 43 1;
#X connect 45 0 16 0;
#X connect 45 0 42 0;
