#N canvas 85 170 760 500 10;
#X floatatom 451 114 5 0 0 0 - - -, f 5;
#X obj 276 225 expr ($f1*($f2/$f3));
#X floatatom 286 120 5 0 0 0 - - -, f 5;
#X floatatom 361 113 5 0 0 0 - - -, f 5;
#X floatatom 342 253 5 0 0 0 - - -, f 5;
#X floatatom 221 196 5 0 0 0 - - -, f 5;
#X obj 268 162 t b f;
#X obj 349 191 t b f;
#X obj 206 70 inlet;
#X obj 469 368 outlet;
#X obj 294 404 outlet;
#X obj 310 50 inlet;
#X obj 395 51 inlet;
#X obj 467 218 expr (1/($f1/$f2));
#X floatatom 484 278 5 0 0 0 - - -, f 5;
#X obj 519 317 s ratiomodul;
#X obj 319 291 ftom;
#X obj 308 320 int;
#X obj 305 366 mtof;
#X floatatom 304 342 5 0 0 0 - - -, f 5;
#X floatatom 374 350 5 0 0 0 - - -, f 5;
#X connect 0 0 1 0;
#X connect 0 0 9 0;
#X connect 1 0 4 0;
#X connect 2 0 6 0;
#X connect 2 0 13 0;
#X connect 3 0 7 0;
#X connect 3 0 13 1;
#X connect 4 0 16 0;
#X connect 6 0 0 0;
#X connect 6 0 5 0;
#X connect 6 1 1 1;
#X connect 7 0 0 0;
#X connect 7 1 1 2;
#X connect 8 0 0 0;
#X connect 11 0 2 0;
#X connect 12 0 3 0;
#X connect 13 0 14 0;
#X connect 14 0 15 0;
#X connect 16 0 17 0;
#X connect 16 0 20 0;
#X connect 17 0 19 0;
#X connect 18 0 10 0;
#X connect 19 0 18 0;
