#N canvas 419 346 461 175 10;
#X obj 25 -184 phasor~;
#X floatatom 324 -225 5 0 0 0 - - -;
#X obj 324 -206 clip 0 1;
#X obj 324 -184 * 0.25;
#X obj 26 -163 fexpr~ sin(($x1 + $f2 * $y1) * 6.283185308);
#X obj 64 -229 loadbang;
#X obj 64 -207 f \$1;
#X obj 26 -250 inlet~;
#X obj 374 -272 loadbang;
#X obj 374 -250 f \$2;
#X obj 324 -272 inlet;
#X obj 26 -141 outlet~;
#X text 261 -225 feedback;
#X text 75 -249 hertz (en audio);
#X text 24 -273 lsin~ : oscillateur récursif;
#X connect 0 0 4 0;
#X connect 1 0 2 0;
#X connect 2 0 3 0;
#X connect 3 0 4 1;
#X connect 4 0 11 0;
#X connect 5 0 6 0;
#X connect 6 0 0 0;
#X connect 7 0 0 0;
#X connect 8 0 9 0;
#X connect 9 0 1 0;
#X connect 10 0 1 0;
