#N canvas 123 55 1263 722 10;
#X obj 149 11 r deltaz;
#X obj 128 344 random 6;
#X obj 125 374 + 1;
#X obj 125 319 metro 2000;
#X obj 93 277 loadbang;
#X floatatom 167 290 5 0 0 0 - - -;
#X obj 163 640 outlet num;
#X obj 325 645 outlet denom;
#X floatatom 123 413 5 0 0 0 - - -;
#X obj 95 303 bng 15 250 50 0 empty empty empty 17 7 0 10 -262144 -1
-1;
#X obj 173 413 +;
#X obj 260 348 + 1;
#X obj 260 293 metro 2000;
#X obj 228 251 loadbang;
#X floatatom 317 260 5 0 0 0 - - -;
#X obj 230 277 bng 15 250 50 0 empty empty empty 17 7 0 10 -262144
-1 -1;
#X obj 24 73 s $f0-1;
#X obj 80 73 s $f0-2;
#X obj 136 73 s $f0-3;
#X obj 201 73 s $f0-4;
#X obj 258 69 s $f0-5;
#X obj 317 75 s $f0-6;
#X obj 381 75 s $f0-7;
#X obj 278 323 random 6;
#X floatatom 227 390 5 0 0 0 - - -;
#X obj 432 311 + 1;
#X obj 372 249 metro 1500;
#X obj 399 167 t b b;
#X obj 458 246 metro 1500;
#X obj 544 243 metro 1500;
#X msg 397 186 stop;
#X obj 333 229 bng 15 250 50 0 empty empty empty 17 7 0 10 -262144
-1 -1;
#X floatatom 432 334 5 0 0 0 - - -;
#X obj 170 575 tgl 15 0 empty empty empty 17 7 0 10 -262144 -1 -1 1
1;
#X obj 123 602 spigot;
#X msg 20 20 1;
#X obj 480 156 t b b;
#X msg 480 177 stop;
#X obj 535 151 t b b;
#X msg 536 170 stop;
#X msg 72 17 3;
#X obj 522 275 random 3;
#X obj 454 275 random 5;
#X obj 383 274 random 9;
#X obj 216 601 spigot;
#X obj 256 576 tgl 15 0 empty empty empty 17 7 0 10 -262144 -1 -1 1
1;
#X obj 399 133 r $f0-7;
#X obj 480 134 r $f0-6;
#X obj 535 125 r $f0-5;
#X obj 156 524 expr if ($f1 > 4 \, 1 \, 0);
#X obj 684 312 + 1;
#X obj 684 257 metro 2000;
#X obj 652 215 loadbang;
#X floatatom 682 351 5 0 0 0 - - -;
#X obj 654 241 bng 15 250 50 0 empty empty empty 17 7 0 10 -262144
-1 -1;
#X obj 744 395 +;
#X obj 831 330 + 1;
#X obj 831 275 metro 2000;
#X obj 799 233 loadbang;
#X floatatom 901 247 5 0 0 0 - - -;
#X obj 801 259 bng 15 250 50 0 empty empty empty 17 7 0 10 -262144
-1 -1;
#X text 751 146 low delta;
#X obj 849 305 random 6;
#X floatatom 798 372 5 0 0 0 - - -;
#X obj 1003 293 + 1;
#X obj 943 231 metro 1500;
#X obj 970 149 t b b;
#X obj 1029 228 metro 1500;
#X obj 1115 225 metro 1500;
#X msg 968 168 stop;
#X obj 904 211 bng 15 250 50 0 empty empty empty 17 7 0 10 -262144
-1 -1;
#X floatatom 1003 316 5 0 0 0 - - -;
#X obj 449 562 tgl 15 0 empty empty empty 17 7 0 10 -262144 -1 -1 0
1;
#X obj 402 589 spigot;
#X obj 1051 138 t b b;
#X msg 1051 159 stop;
#X obj 1106 133 t b b;
#X msg 1107 152 stop;
#X obj 1093 257 random 3;
#X obj 1025 257 random 5;
#X obj 495 588 spigot;
#X obj 535 563 tgl 15 0 empty empty empty 17 7 0 10 -262144 -1 -1 0
1;
#X obj 970 115 r $f0-1;
#X obj 1051 116 r $f0-2;
#X obj 1108 106 r $f0-3;
#X floatatom 737 421 5 0 0 0 - - -;
#X obj 435 511 expr if ($f1 < 4 \, 1 \, 0);
#X obj -24 124 r metrocloches;
#X text 207 112 high delta;
#X obj 954 256 random 7;
#X obj 425 0 loadbang;
#X text 836 372 that number should stay the same sometimes;
#X msg 779 302 stop;
#X obj 687 282 random 6;
#X obj 152 39 sel 1 2 3 4 5 6 7;
#X floatatom 41 161 5 0 0 0 - - -;
#X floatatom 148 164 5 0 0 0 - - -;
#X obj 198 166 change;
#X obj 199 191 bng 15 250 50 0 empty empty empty 17 7 0 10 -262144
-1 -1;
#X floatatom 246 190 5 0 0 0 - - -;
#X obj 829 478 change;
#X obj 825 500 bng 15 250 50 0 empty empty empty 17 7 0 10 -262144
-1 -1;
#X obj 68 213 expr ($f1 * 10 *($f2/$f3));
#X obj 148 135 r frac1;
#X obj 255 149 r frac2;
#X obj 619 116 r metrocloches;
#X obj 748 182 expr ($f1 * $f2);
#X floatatom 861 125 5 0 0 0 - - -;
#X obj 863 97 r frac1;
#X obj 858 153 change;
#X obj 884 174 bng 15 250 50 0 empty empty empty 17 7 0 10 -262144
-1 -1;
#X floatatom 682 167 5 0 0 0 - - -;
#X obj 40 267 line;
#X msg 54 246 \$1 50;
#X obj 759 227 line;
#X msg 773 206 \$1 50;
#X obj 630 189 * 2;
#X floatatom 647 148 5 0 0 0 - - -;
#X obj 437 489 r deltaz2;
#X obj 157 500 r deltaz2;
#X obj 333 33 int;
#X floatatom 379 50 5 0 0 0 - - -;
#X obj 223 12 zscale -1.5 1 1 7;
#X obj 344 488 loadbang;
#X obj 111 115 r fastx;
#X obj 95 148 *;
#X floatatom 95 183 5 0 0 0 - - -;
#X obj 41 97 loadbang;
#X obj -15 199 loadbang;
#X msg -3 240 120;
#X msg 79 118 0.3;
#X obj 461 80 s deltaz2;
#X msg 361 21 7;
#X obj 737 127 r fastx;
#X obj 775 71 change;
#X obj 778 95 bng 15 250 50 0 empty empty empty 17 7 0 10 -262144 -1
-1;
#X floatatom 304 190 5 0 0 0 - - -;
#X obj 324 147 bng 15 250 50 0 empty empty empty 17 7 0 10 -262144
-1 -1;
#X obj 322 124 change;
#X connect 0 0 122 0;
#X connect 1 0 2 0;
#X connect 2 0 8 0;
#X connect 3 0 1 0;
#X connect 4 0 3 0;
#X connect 5 0 3 1;
#X connect 8 0 34 0;
#X connect 8 0 10 0;
#X connect 9 0 3 0;
#X connect 10 0 44 0;
#X connect 11 0 24 0;
#X connect 12 0 23 0;
#X connect 13 0 12 0;
#X connect 14 0 12 1;
#X connect 15 0 12 0;
#X connect 23 0 11 0;
#X connect 24 0 10 1;
#X connect 25 0 32 0;
#X connect 26 0 43 0;
#X connect 27 0 30 0;
#X connect 27 1 26 0;
#X connect 28 0 42 0;
#X connect 29 0 41 0;
#X connect 30 0 28 0;
#X connect 30 0 29 0;
#X connect 31 0 26 0;
#X connect 32 0 23 1;
#X connect 33 0 34 1;
#X connect 34 0 6 0;
#X connect 35 0 16 0;
#X connect 36 0 37 0;
#X connect 36 1 28 0;
#X connect 37 0 26 0;
#X connect 37 0 29 0;
#X connect 38 0 39 0;
#X connect 38 1 29 0;
#X connect 39 0 28 0;
#X connect 39 0 26 0;
#X connect 40 0 18 0;
#X connect 41 0 25 0;
#X connect 42 0 25 0;
#X connect 43 0 25 0;
#X connect 44 0 7 0;
#X connect 45 0 44 1;
#X connect 46 0 27 0;
#X connect 47 0 36 0;
#X connect 48 0 38 0;
#X connect 49 0 33 0;
#X connect 49 0 45 0;
#X connect 50 0 53 0;
#X connect 51 0 93 0;
#X connect 52 0 51 0;
#X connect 53 0 73 0;
#X connect 53 0 55 0;
#X connect 54 0 51 0;
#X connect 55 0 85 0;
#X connect 56 0 63 0;
#X connect 57 0 62 0;
#X connect 58 0 57 0;
#X connect 59 0 57 1;
#X connect 60 0 57 0;
#X connect 62 0 56 0;
#X connect 63 0 55 1;
#X connect 63 0 100 0;
#X connect 64 0 71 0;
#X connect 65 0 89 0;
#X connect 66 0 69 0;
#X connect 66 1 65 0;
#X connect 67 0 79 0;
#X connect 68 0 78 0;
#X connect 69 0 67 0;
#X connect 69 0 68 0;
#X connect 70 0 65 0;
#X connect 71 0 62 1;
#X connect 72 0 73 1;
#X connect 73 0 7 0;
#X connect 74 0 75 0;
#X connect 74 1 67 0;
#X connect 75 0 65 0;
#X connect 75 0 68 0;
#X connect 76 0 77 0;
#X connect 76 1 68 0;
#X connect 77 0 67 0;
#X connect 77 0 65 0;
#X connect 78 0 64 0;
#X connect 79 0 64 0;
#X connect 80 0 6 0;
#X connect 81 0 80 1;
#X connect 82 0 66 0;
#X connect 83 0 74 0;
#X connect 84 0 76 0;
#X connect 85 0 80 0;
#X connect 86 0 72 0;
#X connect 86 0 81 0;
#X connect 87 0 95 0;
#X connect 89 0 64 0;
#X connect 90 0 132 0;
#X connect 92 0 57 0;
#X connect 93 0 50 0;
#X connect 94 0 16 0;
#X connect 94 1 17 0;
#X connect 94 2 18 0;
#X connect 94 3 19 0;
#X connect 94 4 20 0;
#X connect 94 5 21 0;
#X connect 94 6 22 0;
#X connect 95 0 125 0;
#X connect 96 0 97 0;
#X connect 96 0 102 1;
#X connect 97 0 98 0;
#X connect 98 0 95 0;
#X connect 98 0 96 0;
#X connect 99 0 97 0;
#X connect 99 0 102 2;
#X connect 100 0 101 0;
#X connect 101 0 53 0;
#X connect 102 0 113 0;
#X connect 103 0 96 0;
#X connect 104 0 99 0;
#X connect 105 0 116 0;
#X connect 106 0 115 0;
#X connect 107 0 109 0;
#X connect 107 0 106 1;
#X connect 108 0 107 0;
#X connect 109 0 110 0;
#X connect 110 0 111 0;
#X connect 111 0 106 0;
#X connect 111 0 51 1;
#X connect 112 0 5 0;
#X connect 112 0 14 0;
#X connect 113 0 112 0;
#X connect 114 0 59 0;
#X connect 115 0 114 0;
#X connect 116 0 111 0;
#X connect 117 0 116 1;
#X connect 117 0 134 0;
#X connect 118 0 86 0;
#X connect 120 0 121 0;
#X connect 121 0 94 0;
#X connect 121 0 131 0;
#X connect 122 0 120 0;
#X connect 123 0 45 0;
#X connect 123 0 33 0;
#X connect 124 0 125 1;
#X connect 124 0 136 0;
#X connect 124 0 138 0;
#X connect 125 0 102 0;
#X connect 125 0 126 0;
#X connect 127 0 130 0;
#X connect 128 0 129 0;
#X connect 129 0 95 0;
#X connect 130 0 125 1;
#X connect 132 0 121 0;
#X connect 133 0 117 0;
#X connect 134 0 135 0;
#X connect 135 0 116 0;
#X connect 135 0 125 0;
#X connect 137 0 95 0;
#X connect 138 0 137 0;
