#N canvas 343 27 919 678 10;
#X obj 11 21 inlet;
#X obj 94 49 inlet;
#X text 15 2 args: in-lo in-hi out-lo out-hi exp;
#X obj 723 22 loadbang;
#X obj 94 71 t b f;
#X obj 201 47 inlet;
#X obj 201 69 t b f;
#X obj 307 43 inlet;
#X obj 307 65 t b f;
#X obj 424 40 inlet;
#X obj 424 62 t b f;
#X obj 540 36 inlet;
#X obj 540 57 t b f;
#X obj 463 214 f \$1;
#X obj 463 241 v \$0-in-lo;
#X obj 463 182 r \$0-init;
#X obj 545 181 r \$0-init;
#X obj 626 181 r \$0-init;
#X obj 718 181 r \$0-init;
#X obj 812 179 r \$0-init;
#X obj 545 213 f \$2;
#X obj 626 213 f \$3;
#X obj 718 213 f \$4;
#X obj 812 211 f \$5;
#X obj 545 240 v \$0-in-hi;
#X obj 626 240 v \$0-out-lo;
#X obj 718 240 v \$0-out-hi;
#X obj 812 310 v \$0-loginc;
#X obj 755 63 s \$0-init;
#X obj 126 94 v \$0-in-lo;
#X obj 233 92 v \$0-in-hi;
#X obj 339 88 v \$0-out-lo;
#X obj 456 86 v \$0-out-hi;
#X obj 723 40 t b b;
#X obj 723 85 s \$0-update;
#N canvas 359 22 817 745 calc-scalers 0;
#X obj 248 230 expr $f2-$f1;
#X obj 216 505 moses 0;
#X obj 216 533 * -1;
#X obj 115 546 v \$0-orange;
#X obj 89 315 v \$0-irange;
#X msg 89 418 0;
#X obj 89 472 v \$0-zval;
#X obj 99 449 v \$0-scaler;
#X obj 323 547 v \$0-loginc;
#X obj 248 152 t b b;
#X obj 248 205 v \$0-in-lo;
#X obj 280 180 v \$0-in-hi;
#X obj 248 257 v \$0-irange;
#X obj 121 226 expr $f2-$f1;
#X obj 121 148 t b b;
#X obj 121 253 v \$0-orange;
#X obj 153 176 v \$0-out-hi;
#X obj 121 201 v \$0-out-lo;
#X obj 89 121 t b b;
#X obj 89 338 == 0;
#X obj 627 457 t b b;
#X obj 627 510 v \$0-orange;
#X obj 659 485 v \$0-irange;
#X obj 627 535 /;
#X obj 438 457 t b b;
#X obj 438 510 v \$0-in-lo;
#X obj 470 485 v \$0-in-hi;
#X obj 627 563 v \$0-scaler;
#X obj 438 560 sel 1 0;
#X obj 438 535 <;
#X obj 437 604 v \$0-in-lo;
#X obj 515 605 v \$0-in-hi;
#X obj 291 407 t b b;
#X obj 438 636 v \$0-offset;
#X obj 216 480 v \$0-irange;
#X obj 115 600 v \$0-zval;
#X obj 509 538 min;
#X obj 89 95 r \$0-update;
#X obj 89 365 sel 1 0;
#X floatatom 668 536 5 0 0 0 - - -;
#X obj 115 572 expr $f1* exp(-1 * ($f2*$f3));
#X connect 0 0 12 0;
#X connect 1 0 2 0;
#X connect 1 1 40 1;
#X connect 2 0 40 1;
#X connect 3 0 40 0;
#X connect 4 0 19 0;
#X connect 5 0 6 0;
#X connect 5 0 7 0;
#X connect 8 0 40 2;
#X connect 9 0 10 0;
#X connect 9 1 11 0;
#X connect 10 0 0 0;
#X connect 11 0 0 1;
#X connect 13 0 15 0;
#X connect 14 0 17 0;
#X connect 14 1 16 0;
#X connect 16 0 13 1;
#X connect 17 0 13 0;
#X connect 18 0 4 0;
#X connect 18 1 14 0;
#X connect 18 1 9 0;
#X connect 19 0 38 0;
#X connect 20 0 21 0;
#X connect 20 1 22 0;
#X connect 21 0 23 0;
#X connect 22 0 23 1;
#X connect 23 0 27 0;
#X connect 23 0 39 0;
#X connect 24 0 25 0;
#X connect 24 1 26 0;
#X connect 25 0 29 0;
#X connect 25 0 36 0;
#X connect 26 0 29 1;
#X connect 26 0 36 1;
#X connect 28 0 30 0;
#X connect 28 1 31 0;
#X connect 29 0 28 0;
#X connect 30 0 33 0;
#X connect 31 0 33 0;
#X connect 32 0 3 0;
#X connect 32 1 8 0;
#X connect 32 1 24 0;
#X connect 32 1 20 0;
#X connect 32 1 34 0;
#X connect 34 0 1 0;
#X connect 37 0 18 0;
#X connect 38 0 5 0;
#X connect 38 1 32 0;
#X connect 40 0 35 0;
#X restore 284 182 pd calc-scalers;
#X obj 94 115 s \$0-update;
#X obj 201 113 s \$0-update;
#X obj 307 109 s \$0-update;
#X obj 424 104 s \$0-update;
#X obj 540 144 s \$0-update;
#X obj 57 202 v \$0-loginc;
#X obj 57 137 t b f;
#X obj 254 369 v \$0-scaler;
#X obj 56 284 sel 1 0;
#X obj 57 246 != 0;
#X obj 89 164 v \$0-output;
#X obj 11 615 outlet;
#N canvas 707 60 733 643 exp-case 0;
#X obj 296 145 v \$0-offset;
#X obj 72 423 v \$0-zval;
#X obj 296 169 moses 0;
#X obj 296 218 t b f;
#X floatatom 296 346 5 0 0 0 - - -;
#X obj 296 310 +;
#X obj 296 190 * -1;
#X obj 204 172 moses 0;
#X obj 204 193 * -1;
#X obj 204 148 v \$0-irange;
#X floatatom 337 266 5 0 0 0 - - -;
#X obj 204 310 -;
#X obj 204 248 t f b;
#X obj 106 52 t b b b;
#X obj 296 243 v \$0-output;
#X obj 348 342 v \$0-output;
#X obj 222 281 v \$0-output;
#X obj 204 336 v \$0-output;
#X obj 78 151 v \$0-output;
#X obj 78 179 != 0;
#X obj 80 353 t b b;
#X obj 229 422 v \$0-loginc;
#X obj 145 391 v \$0-output;
#X obj 78 208 sel 1 0;
#X obj 71 516 outlet;
#X obj 101 287 v \$0-output;
#X obj 110 15 inlet;
#X floatatom 388 185 5 0 0 0 - - -;
#X floatatom 182 447 5 0 0 0 - - -;
#X floatatom 256 455 5 0 0 0 - - -;
#X floatatom 31 452 5 0 0 0 - - -;
#X obj 72 475 expr $f1 * exp($f2*$f3);
#X connect 0 0 2 0;
#X connect 0 0 27 0;
#X connect 1 0 31 0;
#X connect 1 0 30 0;
#X connect 2 0 6 0;
#X connect 2 1 3 0;
#X connect 3 0 14 0;
#X connect 3 1 5 1;
#X connect 5 0 4 0;
#X connect 5 0 15 0;
#X connect 6 0 3 0;
#X connect 7 0 8 0;
#X connect 8 0 12 0;
#X connect 9 0 7 0;
#X connect 11 0 17 0;
#X connect 12 0 11 0;
#X connect 12 1 16 0;
#X connect 13 0 18 0;
#X connect 13 1 9 0;
#X connect 13 2 0 0;
#X connect 14 0 5 0;
#X connect 14 0 10 0;
#X connect 16 0 11 1;
#X connect 18 0 19 0;
#X connect 19 0 23 0;
#X connect 20 0 1 0;
#X connect 20 1 22 0;
#X connect 20 1 21 0;
#X connect 21 0 29 0;
#X connect 21 0 31 2;
#X connect 22 0 28 0;
#X connect 22 0 31 1;
#X connect 23 0 20 0;
#X connect 23 1 25 0;
#X connect 25 0 24 0;
#X connect 26 0 13 0;
#X connect 31 0 24 0;
#X restore 56 341 pd exp-case;
#X obj 56 470 t f b;
#X obj 88 495 v \$0-out-lo;
#X obj 56 527 +;
#X obj 150 341 t f b;
#X obj 150 312 v \$0-output;
#X obj 150 401 -;
#X obj 150 427 *;
#X obj 163 370 v \$0-in-lo;
#X text 92 25 in-lo;
#X text 198 21 in-hi;
#X text 308 22 out-lo;
#X text 427 24 out-hi;
#X text 537 18 exp-base;
#X text 19 41 float;
#X obj 11 584 f;
#X obj 11 108 route bang;
#X obj 812 286 log;
#X obj 812 235 moses 1;
#X msg 812 260 1;
#X obj 602 115 v \$0-loginc;
#X obj 602 91 log;
#X obj 602 40 moses 1;
#X msg 602 65 1;
#X connect 0 0 64 0;
#X connect 1 0 4 0;
#X connect 3 0 33 0;
#X connect 4 0 36 0;
#X connect 4 1 29 0;
#X connect 5 0 6 0;
#X connect 6 0 37 0;
#X connect 6 1 30 0;
#X connect 7 0 8 0;
#X connect 8 0 38 0;
#X connect 8 1 31 0;
#X connect 9 0 10 0;
#X connect 10 0 39 0;
#X connect 10 1 32 0;
#X connect 11 0 12 0;
#X connect 12 0 40 0;
#X connect 12 1 70 0;
#X connect 13 0 14 0;
#X connect 15 0 13 0;
#X connect 16 0 20 0;
#X connect 17 0 21 0;
#X connect 18 0 22 0;
#X connect 19 0 23 0;
#X connect 20 0 24 0;
#X connect 21 0 25 0;
#X connect 22 0 26 0;
#X connect 23 0 66 0;
#X connect 33 0 34 0;
#X connect 33 1 28 0;
#X connect 41 0 45 0;
#X connect 42 0 41 0;
#X connect 42 1 46 0;
#X connect 43 0 55 1;
#X connect 44 0 48 0;
#X connect 44 1 53 0;
#X connect 45 0 44 0;
#X connect 48 0 49 0;
#X connect 49 0 51 0;
#X connect 49 1 50 0;
#X connect 50 0 51 1;
#X connect 51 0 63 0;
#X connect 52 0 54 0;
#X connect 52 1 43 0;
#X connect 52 1 56 0;
#X connect 53 0 52 0;
#X connect 54 0 55 0;
#X connect 55 0 49 0;
#X connect 56 0 54 1;
#X connect 63 0 47 0;
#X connect 64 0 63 0;
#X connect 64 1 42 0;
#X connect 65 0 27 0;
#X connect 66 0 67 0;
#X connect 66 1 65 0;
#X connect 67 0 65 0;
#X connect 69 0 68 0;
#X connect 70 0 71 0;
#X connect 70 1 69 0;
#X connect 71 0 69 0;
